<svg width="235" height="76" viewBox="0 0 235 76" fill="none" xmlns="http://www.w3.org/2000/svg">
<path d="M121 36C121 36.5313 120.842 37.3188 120.522 38.2437C120.206 39.1529 119.756 40.1304 119.225 41.0254C118.691 41.9257 118.098 42.7051 117.51 43.2462C116.901 43.8061 116.422 44 116.1 44C115.774 44 115.28 43.8018 114.649 43.2371C114.041 42.6925 113.423 41.91 112.865 41.009C112.31 40.1129 111.836 39.1353 111.504 38.2276C111.165 37.3026 111 36.5216 111 36C111 35.0379 111.59 34.0504 112.623 33.258C113.65 32.4702 114.966 32 116.1 32C117.23 32 118.488 32.4665 119.46 33.245C120.434 34.025 121 35.0134 121 36Z" stroke="white" stroke-width="2"/>
<path d="M110.5 46.5L3.50003 3.5C24.4638 29.8773 25.5 45.5 53.5 46.5C81.5 47.5 110.5 49 110.5 49V46.5Z" stroke="white" stroke-width="2"/>
<path d="M17.5 23L110.164 47.0136" stroke="white" stroke-width="2"/>
<path d="M124.054 46L231.054 3C210.09 29.3773 209.054 45 181.054 46C153.054 47 124.054 48.5 124.054 48.5V46Z" stroke="white" stroke-width="2"/>
<path d="M217.054 22.5L124.39 46.5136" stroke="white" stroke-width="2"/>
<path d="M106 28.5391C110 26.0391 111.564 28.2861 112.825 32.1594" stroke="white" stroke-width="2"/>
<path d="M125.9 28.5391C121.9 26.0391 120.335 28.2861 119.074 32.1594" stroke="white" stroke-width="2"/>
<path fill-rule="evenodd" clip-rule="evenodd" d="M116 57.4117L116.878 59.0211C117.196 59.6035 117.417 59.6777 117.444 59.6842L117.444 59.6843C117.45 59.6857 117.578 59.72 117.899 59.4686C118.585 58.9303 119.408 57.6542 120.22 55.9237C121.006 54.2445 121.709 52.3008 122.213 50.6061C122.288 50.3561 122.357 50.1144 122.421 49.8822C119.989 51.1668 118.057 51.8648 116.128 51.876C114.192 51.8872 112.325 51.2077 110.022 49.8888C110.082 50.1266 110.146 50.3742 110.215 50.6302C110.675 52.3269 111.316 54.2715 112.043 55.951C112.338 56.6324 112.642 57.2597 112.948 57.8038L112.958 57.7996L112.999 57.8921C113.053 57.9873 113.108 58.0799 113.162 58.1695C113.548 58.8022 113.902 59.2383 114.2 59.4851C114.345 59.6052 114.448 59.6563 114.508 59.6761C114.536 59.6853 114.552 59.6869 114.558 59.6872C114.563 59.6875 114.566 59.6871 114.57 59.6861C114.581 59.6833 114.799 59.6141 115.122 59.0211L116 57.4117ZM109.731 48.6187L109.759 48.5725C112.385 50.1657 114.254 50.8869 116.122 50.876C117.997 50.8652 119.952 50.1171 122.754 48.5649C122.917 47.8383 123 47.2929 123 47C123 46.8978 122.993 46.824 122.986 46.7728C122.945 46.7724 122.89 46.7744 122.819 46.7815C122.623 46.8011 122.373 46.8515 122.05 46.9336C121.807 46.9954 121.53 47.0745 121.226 47.1616L121.226 47.1617L121.226 47.1617C119.991 47.5149 118.294 48 116.5 48C114.753 48 113.012 47.5379 111.695 47.188C111.336 47.0926 111.008 47.0055 110.72 46.9384C110.366 46.8561 110.08 46.8033 109.849 46.7824C109.684 46.7676 109.579 46.7722 109.517 46.7803C109.508 46.8245 109.5 46.8949 109.5 47C109.5 47.3061 109.578 47.8712 109.731 48.6187ZM116 59.5C115.79 59.8845 115.573 60.1676 115.351 60.3607C114.977 60.6855 114.588 60.7558 114.194 60.6256L116.017 64.7905L118.003 60.569C117.537 60.7698 117.081 60.7249 116.652 60.3573C116.427 60.1642 116.208 59.8822 116 59.5ZM124 47C124 48.5701 122.384 54.1739 120.437 57.7058L120.452 57.7129L116.452 66.2129L115.983 67.2095L115.542 66.2004L112.104 58.3416C110.142 54.8893 108.5 48.6681 108.5 47C108.5 45.306 109.952 45.6904 112.03 46.2406C113.34 46.5874 114.899 47 116.5 47C118.137 47 119.652 46.5686 120.885 46.2173C122.772 45.6799 124 45.3301 124 47Z" fill="white"/>
<path d="M116.878 59.0211L116.439 59.2606V59.2606L116.878 59.0211ZM116 57.4117L116.439 57.1722L116 56.3675L115.561 57.1722L116 57.4117ZM117.444 59.6842L117.568 59.1997L117.564 59.1987L117.444 59.6842ZM117.444 59.6843L117.573 59.2012L117.568 59.1998L117.444 59.6843ZM117.899 59.4686L118.207 59.862V59.862L117.899 59.4686ZM120.22 55.9237L120.672 56.1359L120.22 55.9237ZM122.213 50.6061L121.734 50.4633H121.734L122.213 50.6061ZM122.421 49.8822L122.903 50.0152L123.211 48.8996L122.188 49.44L122.421 49.8822ZM116.128 51.876L116.131 52.376L116.128 51.876ZM110.022 49.8888L110.271 49.4549L109.253 48.8719L109.537 50.01L110.022 49.8888ZM110.215 50.6302L109.733 50.7608L110.215 50.6302ZM112.043 55.951L112.502 55.7525H112.502L112.043 55.951ZM112.948 57.8038L112.513 58.0492L112.735 58.4431L113.149 58.2619L112.948 57.8038ZM112.958 57.7996L113.416 57.5992L113.216 57.1411L112.758 57.3415L112.958 57.7996ZM112.999 57.8921L112.54 58.0925L112.551 58.1173L112.565 58.1408L112.999 57.8921ZM113.162 58.1695L112.736 58.4298H112.736L113.162 58.1695ZM114.2 59.4851L114.519 59.1L114.519 59.1L114.2 59.4851ZM114.508 59.6761L114.351 60.1508L114.351 60.1508L114.508 59.6761ZM114.558 59.6872L114.583 59.1879L114.583 59.1878L114.558 59.6872ZM114.57 59.6861L114.693 60.1707L114.693 60.1707L114.57 59.6861ZM115.122 59.0211L115.561 59.2606V59.2606L115.122 59.0211ZM109.731 48.6187L109.242 48.719L109.497 49.9683L110.159 48.878L109.731 48.6187ZM109.759 48.5725L110.019 48.145L109.591 47.8857L109.332 48.3132L109.759 48.5725ZM116.122 50.876L116.119 50.376L116.122 50.876ZM122.754 48.5649L122.996 49.0023L123.192 48.8935L123.241 48.6746L122.754 48.5649ZM122.986 46.7728L123.481 46.7L123.418 46.2768L122.991 46.2728L122.986 46.7728ZM122.819 46.7815L122.868 47.279L122.819 46.7815ZM122.05 46.9336L122.173 47.4182V47.4182L122.05 46.9336ZM121.226 47.1616L121.088 46.6809L121.087 46.6813L121.226 47.1616ZM121.226 47.1617L121.087 46.6812L121.076 46.6844L121.226 47.1617ZM121.226 47.1617L121.363 47.6425L121.375 47.6389L121.226 47.1617ZM111.695 47.188L111.567 47.6712H111.567L111.695 47.188ZM110.72 46.9384L110.833 46.4514L110.72 46.9384ZM109.849 46.7824L109.894 46.2845H109.894L109.849 46.7824ZM109.517 46.7803L109.452 46.2846L109.093 46.3316L109.025 46.6874L109.517 46.7803ZM115.351 60.3607L115.023 59.9833L115.351 60.3607ZM116 59.5L116.439 59.2606L116 58.4558L115.561 59.2606L116 59.5ZM114.194 60.6256L114.351 60.1509L113.287 59.7993L113.736 60.826L114.194 60.6256ZM116.017 64.7905L115.559 64.9909L116 66L116.469 65.0034L116.017 64.7905ZM118.003 60.569L118.456 60.7819L119.018 59.5873L117.805 60.1098L118.003 60.569ZM116.652 60.3573L116.327 60.737H116.327L116.652 60.3573ZM120.437 57.7058L119.999 57.4645L119.742 57.9313L120.225 58.1582L120.437 57.7058ZM120.452 57.7129L120.905 57.9258L121.118 57.4734L120.665 57.2605L120.452 57.7129ZM116.452 66.2129L116 66L116.452 66.2129ZM115.983 67.2095L115.525 67.4099L115.967 68.419L116.436 67.4224L115.983 67.2095ZM115.542 66.2004L116 66L115.542 66.2004ZM112.104 58.3416L112.562 58.1412L112.551 58.1173L112.538 58.0946L112.104 58.3416ZM112.03 46.2406L111.902 46.724L112.03 46.2406ZM120.885 46.2173L121.022 46.6982L120.885 46.2173ZM117.317 58.7817L116.439 57.1722L115.561 57.6511L116.439 59.2606L117.317 58.7817ZM117.564 59.1987C117.734 59.2405 117.604 59.3086 117.317 58.7817L116.439 59.2606C116.787 59.8984 117.101 60.1148 117.325 60.1697L117.564 59.1987ZM117.568 59.1998L117.568 59.1997L117.32 60.1687L117.321 60.1687L117.568 59.1998ZM117.59 59.0751C117.461 59.1761 117.403 59.1944 117.405 59.1938C117.407 59.1931 117.425 59.1877 117.458 59.1867C117.474 59.1863 117.493 59.1869 117.514 59.1896C117.525 59.191 117.536 59.1927 117.547 59.195C117.552 59.1961 117.558 59.1973 117.563 59.1985C117.565 59.1991 117.568 59.1997 117.57 59.2003C117.571 59.2005 117.572 59.2007 117.572 59.2009C117.573 59.2011 117.573 59.2012 117.573 59.2012L117.315 60.1673C117.537 60.2266 117.827 60.16 118.207 59.862L117.59 59.0751ZM119.767 55.7115C119.368 56.5622 118.97 57.2922 118.594 57.8701C118.212 58.4552 117.87 58.8557 117.59 59.0751L118.207 59.862C118.614 59.5431 119.027 59.0365 119.431 58.4164C119.84 57.789 120.26 57.0157 120.672 56.1359L119.767 55.7115ZM121.734 50.4633C121.235 52.14 120.541 54.0595 119.767 55.7115L120.672 56.1359C121.472 54.4294 122.182 52.4617 122.693 50.7488L121.734 50.4633ZM121.939 49.7492C121.876 49.978 121.808 50.2165 121.734 50.4633L122.693 50.7488C122.768 50.4957 122.838 50.2507 122.903 50.0152L121.939 49.7492ZM122.188 49.44C119.778 50.713 117.933 51.3655 116.125 51.376L116.131 52.376C118.182 52.3641 120.2 51.6207 122.655 50.3243L122.188 49.44ZM116.125 51.376C114.317 51.3865 112.542 50.7553 110.271 49.4549L109.774 50.3227C112.109 51.6602 114.067 52.388 116.131 52.376L116.125 51.376ZM110.698 50.4995C110.629 50.2466 110.566 50.0022 110.507 49.7675L109.537 50.01C109.597 50.2511 109.662 50.5018 109.733 50.7608L110.698 50.4995ZM112.502 55.7525C111.787 54.1 111.153 52.179 110.698 50.4995L109.733 50.7608C110.197 52.4747 110.846 54.4429 111.584 56.1495L112.502 55.7525ZM113.384 57.5584C113.088 57.0332 112.791 56.4222 112.502 55.7525L111.584 56.1495C111.884 56.8425 112.196 57.4862 112.513 58.0492L113.384 57.5584ZM112.758 57.3415L112.748 57.3458L113.149 58.2619L113.159 58.2577L112.758 57.3415ZM113.457 57.6917L113.416 57.5992L112.5 58L112.54 58.0925L113.457 57.6917ZM113.589 57.9093C113.537 57.8237 113.485 57.735 113.432 57.6434L112.565 58.1408C112.621 58.2397 112.678 58.3361 112.736 58.4298L113.589 57.9093ZM114.519 59.1C114.283 58.9044 113.963 58.522 113.589 57.9093L112.736 58.4298C113.133 59.0824 113.521 59.5723 113.881 59.8703L114.519 59.1ZM114.665 59.2014C114.68 59.2065 114.631 59.1927 114.519 59.1L113.881 59.8703C114.059 60.0177 114.216 60.1062 114.351 60.1508L114.665 59.2014ZM114.583 59.1878C114.626 59.19 114.654 59.1978 114.665 59.2014L114.351 60.1508C114.417 60.1727 114.477 60.1838 114.532 60.1866L114.583 59.1878ZM114.447 59.2015C114.46 59.1981 114.484 59.1926 114.515 59.1895C114.545 59.1866 114.569 59.1871 114.583 59.1879L114.532 60.1865C114.587 60.1894 114.64 60.1842 114.693 60.1707L114.447 59.2015ZM114.683 58.7817C114.387 59.3248 114.26 59.249 114.447 59.2015L114.693 60.1707C114.902 60.1176 115.21 59.9034 115.561 59.2606L114.683 58.7817ZM115.561 57.1722L114.683 58.7817L115.561 59.2606L116.439 57.6511L115.561 57.1722ZM110.159 48.878L110.187 48.8319L109.332 48.3132L109.304 48.3593L110.159 48.878ZM109.5 49C112.149 50.6073 114.116 51.3877 116.125 51.376L116.119 50.376C114.393 50.3861 112.622 49.7242 110.019 48.145L109.5 49ZM116.125 51.376C118.133 51.3644 120.182 50.5614 122.996 49.0023L122.511 48.1276C119.723 49.6727 117.861 50.3659 116.119 50.376L116.125 51.376ZM122.5 47C122.5 47.2322 122.429 47.7298 122.266 48.4553L123.241 48.6746C123.405 47.9468 123.5 47.3536 123.5 47H122.5ZM122.491 46.8456C122.495 46.8697 122.5 46.9189 122.5 47H123.5C123.5 46.8768 123.492 46.7784 123.481 46.7L122.491 46.8456ZM122.868 47.279C122.924 47.2735 122.96 47.2726 122.981 47.2728L122.991 46.2728C122.929 46.2722 122.856 46.2753 122.769 46.284L122.868 47.279ZM122.173 47.4182C122.488 47.3381 122.71 47.2949 122.868 47.279L122.769 46.284C122.536 46.3073 122.258 46.3649 121.927 46.449L122.173 47.4182ZM121.363 47.6424C121.67 47.5547 121.939 47.4778 122.173 47.4182L121.927 46.449C121.675 46.5131 121.391 46.5944 121.088 46.6809L121.363 47.6424ZM121.364 47.642L121.364 47.642L121.087 46.6813L121.087 46.6813L121.364 47.642ZM121.375 47.6389L121.375 47.6389L121.076 46.6844L121.076 46.6844L121.375 47.6389ZM116.5 48.5C118.374 48.5 120.134 47.9939 121.363 47.6424L121.088 46.6809C119.847 47.0359 118.215 47.5 116.5 47.5V48.5ZM111.567 47.6712C112.876 48.0189 114.677 48.5 116.5 48.5V47.5C114.828 47.5 113.149 47.0568 111.823 46.7047L111.567 47.6712ZM110.606 47.4254C110.885 47.4903 111.205 47.5752 111.567 47.6712L111.823 46.7047C111.466 46.6099 111.13 46.5206 110.833 46.4514L110.606 47.4254ZM109.804 47.2804C110.001 47.2982 110.261 47.345 110.606 47.4254L110.833 46.4514C110.471 46.3671 110.159 46.3084 109.894 46.2845L109.804 47.2804ZM109.582 47.2761C109.598 47.2739 109.666 47.2679 109.804 47.2804L109.894 46.2845C109.703 46.2672 109.559 46.2705 109.452 46.2846L109.582 47.2761ZM110 47C110 46.921 110.006 46.8822 110.008 46.8733L109.025 46.6874C109.01 46.7667 109 46.8687 109 47H110ZM110.221 48.5184C110.068 47.7726 110 47.2509 110 47H109C109 47.3612 109.088 47.9698 109.242 48.719L110.221 48.5184ZM115.679 60.7382C115.96 60.4941 116.211 60.1573 116.439 59.7394L115.561 59.2606C115.37 59.6117 115.187 59.8412 115.023 59.9833L115.679 60.7382ZM114.038 61.1004C114.61 61.2896 115.181 61.1706 115.679 60.7382L115.023 59.9833C114.773 60.2003 114.567 60.222 114.351 60.1509L114.038 61.1004ZM116.475 64.5901L114.653 60.4252L113.736 60.826L115.559 64.9909L116.475 64.5901ZM117.551 60.3561L115.564 64.5776L116.469 65.0034L118.456 60.7819L117.551 60.3561ZM116.327 60.737C116.602 60.9728 116.909 61.1239 117.244 61.1713C117.577 61.2187 117.9 61.1578 118.201 61.0281L117.805 60.1098C117.64 60.181 117.503 60.1981 117.384 60.1813C117.267 60.1646 117.131 60.1094 116.977 59.9775L116.327 60.737ZM115.561 59.7394C115.789 60.1565 116.042 60.4928 116.327 60.737L116.977 59.9775C116.812 59.8356 116.628 59.6079 116.439 59.2606L115.561 59.7394ZM120.875 57.9471C121.87 56.1422 122.772 53.8247 123.425 51.7686C123.752 50.7384 124.019 49.7667 124.205 48.9492C124.387 48.144 124.5 47.4526 124.5 47H123.5C123.5 47.3325 123.41 47.9303 123.229 48.7278C123.051 49.513 122.792 50.4573 122.472 51.4659C121.83 53.4872 120.951 55.7376 119.999 57.4645L120.875 57.9471ZM120.665 57.2605L120.65 57.2534L120.225 58.1582L120.24 58.1653L120.665 57.2605ZM116.905 66.4258L120.905 57.9258L120 57.5L116 66L116.905 66.4258ZM116.436 67.4224L116.905 66.4258L116 66L115.531 66.9966L116.436 67.4224ZM115.084 66.4008L115.525 67.4099L116.441 67.0091L116 66L115.084 66.4008ZM111.646 58.542L115.084 66.4008L116 66L112.562 58.1412L111.646 58.542ZM108 47C108 47.4733 108.113 48.2189 108.298 49.094C108.486 49.9809 108.756 51.0361 109.087 52.1448C109.747 54.3551 110.661 56.8147 111.669 58.5886L112.538 58.0946C111.585 56.4162 110.697 54.0391 110.045 51.8586C109.721 50.772 109.458 49.7434 109.276 48.8868C109.092 48.0183 109 47.3608 109 47H108ZM112.158 45.7573C111.643 45.6208 111.147 45.4894 110.701 45.3989C110.26 45.3093 109.829 45.2514 109.448 45.2801C109.061 45.3093 108.668 45.433 108.382 45.761C108.103 46.0819 108 46.5148 108 47H109C109 46.6382 109.079 46.4839 109.136 46.4177C109.188 46.3585 109.288 46.2951 109.523 46.2773C109.765 46.2591 110.087 46.2946 110.502 46.3789C110.913 46.4624 111.379 46.5854 111.902 46.724L112.158 45.7573ZM116.5 46.5C114.974 46.5 113.477 46.1063 112.158 45.7573L111.902 46.724C113.203 47.0684 114.824 47.5 116.5 47.5V46.5ZM120.748 45.7364C119.509 46.0895 118.058 46.5 116.5 46.5V47.5C118.217 47.5 119.796 47.0476 121.022 46.6982L120.748 45.7364ZM124.5 47C124.5 46.5341 124.417 46.1163 124.179 45.7985C123.927 45.4607 123.566 45.3199 123.2 45.2834C122.849 45.2484 122.457 45.3041 122.062 45.3893C121.663 45.4757 121.215 45.6033 120.748 45.7364L121.022 46.6982C121.499 46.5625 121.912 46.4449 122.274 46.3667C122.64 46.2875 122.909 46.2593 123.101 46.2784C123.277 46.296 123.341 46.3473 123.378 46.3968C123.43 46.4662 123.5 46.6309 123.5 47H124.5Z" fill="white"/>
<path d="M77 62.4999C107.515 56.4679 124.819 56.5316 156 62.4999" stroke="white" stroke-width="2"/>
<line x1="58.4552" y1="61.6362" x2="61.4552" y2="73.6362" stroke="white" stroke-width="3"/>
<line x1="64.4453" y1="56.5985" x2="69.4453" y2="74.5985" stroke="white" stroke-width="3"/>
<line x1="70.44" y1="51.58" x2="77.44" y2="75.58" stroke="white" stroke-width="3"/>
<line y1="-1.5" x2="12.3693" y2="-1.5" transform="matrix(-0.242536 0.970142 0.970142 0.242536 176 62)" stroke="white" stroke-width="3"/>
<line y1="-1.5" x2="18.6815" y2="-1.5" transform="matrix(-0.267644 0.963518 0.963518 0.267644 170 57)" stroke="white" stroke-width="3"/>
<line y1="-1.5" x2="25" y2="-1.5" transform="matrix(-0.28 0.96 0.96 0.28 164 52)" stroke="white" stroke-width="3"/>
</svg>
