<svg width="116" height="173" viewBox="0 0 116 173" fill="none" xmlns="http://www.w3.org/2000/svg">
<path fill-rule="evenodd" clip-rule="evenodd" d="M56.6023 172.381C44.79 160.845 0 97.2988 0 60.4421C0 21.849 28.1288 0.0305795 58 3.21197e-05C87.8712 0.0305795 116 21.849 116 60.4421C116 97.2984 71.3256 160.843 59.523 172.381C58.6785 173.206 57.4472 173.206 56.6023 172.381ZM56.6744 143.925C47.5524 134.377 16.2634 88.665 16.2634 61.9722C16.2634 33.5668 36.5584 17.508 58.1105 17.4855C79.6625 17.508 99.9575 33.5668 99.9575 61.9722C99.9575 88.6645 68.7497 134.376 59.6368 143.924C58.8086 144.792 57.5031 144.792 56.6744 143.925Z" fill="white"/>
<path fill-rule="evenodd" clip-rule="evenodd" d="M56.3071 155.478C46.2259 145.742 8 92.1134 8 61.009C8 28.4391 32.0065 10.0258 57.5 10C82.9935 10.0258 107 28.4391 107 61.009C107 92.1131 68.8727 145.741 58.7998 155.477C58.0791 156.174 57.0282 156.174 56.3071 155.478ZM56.3686 131.462C48.5835 123.405 21.88 84.8271 21.88 62.3002C21.88 38.3281 39.2007 24.7755 57.5943 24.7565C75.9879 24.7755 93.3086 38.3281 93.3086 62.3002C93.3086 84.8267 66.6743 123.404 58.8969 131.462C58.1901 132.194 57.0759 132.194 56.3686 131.462Z" fill="white"/>
<path fill-rule="evenodd" clip-rule="evenodd" d="M56.298 165.726C45.3516 154.97 3.84473 95.7204 3.84473 61.3556C3.84473 25.3718 29.9117 5.02851 57.5933 5.00003C85.2749 5.02851 111.342 25.3718 111.342 61.3556C111.342 95.7199 69.9421 154.968 59.0047 165.726C58.2221 166.496 57.081 166.496 56.298 165.726ZM56.3648 139.194C47.9115 130.292 18.916 87.6703 18.916 62.7822C18.916 36.2973 37.7234 21.3242 57.6957 21.3033C77.668 21.3242 96.4754 36.2973 96.4754 62.7822C96.4754 87.6698 67.5551 130.29 59.1101 139.193C58.3426 140.002 57.1328 140.002 56.3648 139.194Z" fill="#C63152"/>
<rect width="87.508" height="12.5668" transform="matrix(-0.807694 -0.589602 -0.589602 0.807694 102.089 83.595)" fill="white"/>
<rect width="87.508" height="12.2252" transform="matrix(-0.913583 0.406653 0.406653 0.913583 93.9459 80)" fill="white"/>
<rect width="87.508" height="6.12904" transform="matrix(-0.807694 -0.589602 -0.589602 0.807694 99.5837 85.6465)" fill="#C63152"/>
<rect width="66.9234" height="6.12904" transform="matrix(-0.913478 0.406888 0.406888 0.913478 94.8255 82.7714)" fill="#C63152"/>
<path d="M78.8577 87.4355C78.8577 97.692 87.1722 106.006 97.4287 106.006C107.685 106.006 116 97.692 116 87.4355C116 77.179 107.685 68.8645 97.4287 68.8645C87.1722 68.8645 78.8577 77.179 78.8577 87.4355Z" fill="white"/>
<path d="M82.0452 87.4969C82.0452 95.9594 88.9054 102.82 97.3678 102.82C105.83 102.82 112.69 95.9594 112.69 87.4969C112.69 79.0345 105.83 72.1743 97.3678 72.1743C88.9054 72.1743 82.0452 79.0345 82.0452 87.4969Z" fill="#C63152"/>
<path d="M2 32.2744C2 42.5308 10.3145 50.8453 20.571 50.8453C30.8275 50.8453 39.142 42.5308 39.142 32.2744C39.142 22.0179 30.8275 13.7034 20.571 13.7034C10.3145 13.7034 2 22.0179 2 32.2744Z" fill="white"/>
<path d="M5.18732 32.3358C5.18732 40.7982 12.0475 47.6584 20.5099 47.6584C28.9724 47.6584 35.8325 40.7982 35.8325 32.3358C35.8325 23.8733 28.9724 17.0132 20.5099 17.0132C12.0475 17.0132 5.18732 23.8733 5.18732 32.3358Z" fill="#C63152"/>
<path d="M10.5812 115.507C10.5812 125.763 18.8957 134.078 29.1522 134.078C39.4086 134.078 47.7232 125.763 47.7232 115.507C47.7232 105.25 39.4086 96.9357 29.1522 96.9357C18.8957 96.9357 10.5812 105.25 10.5812 115.507Z" fill="white"/>
<path d="M13.7675 115.568C13.7675 124.03 20.6277 130.891 29.0901 130.891C37.5526 130.891 44.4127 124.03 44.4127 115.568C44.4127 107.106 37.5526 100.245 29.0901 100.245C20.6277 100.245 13.7675 107.106 13.7675 115.568Z" fill="#C63152"/>
</svg>
